<svg width="180" height="60" viewBox="0 0 180 60" fill="none" xmlns="http://www.w3.org/2000/svg">
<path d="M85.4411 0C93.4725 0 100.756 3.31035 106.021 8.66132C111.285 14.0123 114.546 21.3888 114.546 29.5513C114.546 37.7138 111.285 45.0903 106.021 50.4413C100.756 55.7922 93.4725 59.1026 85.4411 59.1026C77.4097 59.1026 70.1411 55.7922 64.8766 50.4413C61.4816 46.9949 58.9241 42.702 57.5332 37.8952H58.4754C59.8364 42.445 62.2892 46.5263 65.5197 49.8064C70.6197 54.9911 77.664 58.1956 85.4561 58.1956C93.2482 58.1956 100.292 54.9911 105.392 49.8064C110.492 44.6217 113.648 37.4568 113.648 29.5513C113.648 21.6458 110.492 14.4809 105.392 9.29619C100.277 4.11148 93.2332 0.906945 85.4411 0.906945C77.649 0.906945 70.6048 4.11148 65.5048 9.29619C62.2892 12.5612 59.8514 16.6122 58.4904 21.1318H57.5482C58.9391 16.3552 61.4965 12.0926 64.8766 8.66132C70.1411 3.31035 77.4097 0 85.4411 0Z" fill="white"/>
<path d="M91.1542 6.12189C97.6152 6.12189 103.463 8.78226 107.696 13.0751C111.928 17.368 114.545 23.3085 114.545 29.8687C114.545 36.429 111.928 42.3695 107.696 46.6623C103.463 50.9552 97.6152 53.6156 91.1542 53.6156C84.6932 53.6156 78.8454 50.9552 74.6129 46.6623C72.19 44.2136 70.3055 41.2207 69.124 37.8801H70.0812C71.2179 40.9637 72.9976 43.7299 75.241 46.0123C79.3091 50.1389 84.9325 52.7086 91.1393 52.7086C97.346 52.7086 102.969 50.1541 107.038 46.0123C111.106 41.8857 113.618 36.172 113.618 29.8536C113.618 23.5503 111.106 17.8366 107.038 13.6949C102.984 9.58339 97.361 7.02883 91.1542 7.02883C84.9475 7.02883 79.324 9.58339 75.256 13.7251C73.1771 15.8262 71.517 18.3354 70.3803 21.1318H69.4082C70.5897 18.0936 72.3844 15.3576 74.6278 13.0902C78.8454 8.78226 84.6932 6.12189 91.1542 6.12189Z" fill="white"/>
<path d="M97.2862 12.2438C102.042 12.2438 106.365 14.2088 109.475 17.3831C112.601 20.5574 114.53 24.9259 114.53 29.7629C114.53 34.6 112.601 38.9835 109.475 42.1427C106.35 45.317 102.042 47.2821 97.2862 47.2821C92.5302 47.2821 88.2079 45.317 85.0971 42.1427C83.8707 40.8881 82.8237 39.4672 82.0161 37.8801H83.0331C83.766 39.2103 84.6783 40.4346 85.7402 41.5079C88.7014 44.5159 92.7844 46.3751 97.3012 46.3751C101.818 46.3751 105.901 44.5159 108.862 41.5079C111.823 38.4998 113.648 34.343 113.648 29.7629C113.648 25.1677 111.823 21.026 108.862 18.018C105.901 15.01 101.803 13.1507 97.2862 13.1507C92.7695 13.1507 88.6865 15.01 85.7252 18.018C84.8129 18.9552 83.9903 19.9982 83.3173 21.1318H82.2853C83.0481 19.7563 84.0053 18.5017 85.0971 17.3831C88.2229 14.2088 92.5302 12.2438 97.2862 12.2438Z" fill="white"/>
<path d="M102.042 16.9598C105.497 16.9598 108.623 18.3807 110.881 20.6783C113.14 22.9759 114.545 26.1502 114.545 29.6571C114.545 33.1639 113.14 36.3382 110.881 38.6358C108.623 40.9334 105.497 42.3543 102.042 42.3543C98.5874 42.3543 95.4616 40.9334 93.2032 38.6358C92.9789 38.4091 92.7546 38.1672 92.5452 37.9103H93.7566C93.7865 37.9405 93.8164 37.9707 93.8463 38.001C95.9402 40.1323 98.8416 41.4474 102.042 41.4474C105.243 41.4474 108.144 40.1323 110.238 38.001C112.332 35.8696 113.633 32.9221 113.633 29.6722C113.633 26.4223 112.332 23.4747 110.238 21.3434C108.144 19.2121 105.243 17.897 102.042 17.897C98.9314 17.897 96.1047 19.1365 94.0258 21.162H92.7845C92.9191 21.0109 93.0686 20.8597 93.2182 20.7085C95.4616 18.3807 98.5874 16.9598 102.042 16.9598Z" fill="white"/>
<path fill-rule="evenodd" clip-rule="evenodd" d="M112.78 29.1129C112.81 33.7535 112.631 38.4998 112.422 40.0567L112.272 41.1753C112.257 41.3718 112.302 41.3113 112.347 41.4776C112.392 41.659 112.287 41.5683 112.436 41.7497C112.496 41.8253 112.541 41.8706 112.631 41.9613C113.05 42.3846 113.648 42.6566 114.231 42.8834C115.054 43.2159 115.054 43.095 115.383 42.7927C115.966 42.2636 116.564 41.8253 117.237 41.3264C120.513 38.9079 125.822 35.4918 129.367 33.5116C131.311 32.4384 133.958 31.0477 136.052 30.1861C137.338 29.6571 137.293 28.5536 136.052 28.0397C133.958 27.1781 131.296 25.8026 129.367 24.7142C125.837 22.7492 120.513 19.333 117.237 16.8994C116.564 16.4006 115.966 15.9622 115.383 15.4332C115.039 15.1157 115.054 15.0099 114.231 15.3425C113.648 15.5692 113.05 15.8564 112.631 16.2645C112.541 16.3552 112.496 16.4006 112.436 16.4762C112.287 16.6576 112.392 16.582 112.347 16.7482C112.302 16.8994 112.257 16.8389 112.272 17.0506L112.422 18.1691C112.631 19.726 112.795 24.4724 112.78 29.1129ZM123.414 34.3581C122.532 34.8871 114.919 39.5881 114.62 39.694C114.62 39.3312 114.695 38.8172 114.725 38.4393C114.979 35.7034 115.099 32.6349 115.129 29.8687C115.129 29.6117 115.129 29.3548 115.129 29.1129C115.129 28.856 115.129 28.599 115.129 28.3571C115.114 25.6061 114.979 22.5225 114.725 19.7865C114.695 19.4086 114.62 18.9098 114.62 18.5319C114.919 18.6226 122.532 23.3236 123.414 23.8678C124.865 24.7445 126.346 25.6817 127.826 26.4828L131.251 28.3571C131.52 28.5083 132.163 28.8257 132.253 29.1129C132.163 29.4001 131.52 29.7176 131.251 29.8687L127.826 31.7431C126.346 32.5442 124.88 33.4965 123.414 34.3581Z" fill="#D77F7A"/>
<path d="M92.6349 22.5527H89.0604V36.4743H92.6349V31.1838H97.4956V36.4743H101.07V22.5527H97.4956V27.7072H92.6349V22.5527ZM81.7469 22.2957C77.6789 22.2957 74.8073 25.2735 74.8073 29.521C74.8073 33.7535 77.6789 36.7464 81.7469 36.7464C84.3493 36.7464 86.3534 35.5069 87.5947 33.5418L84.6633 31.3803C83.9455 32.5291 82.9434 33.1337 81.702 33.1337C80.0718 33.1337 78.5164 31.9093 78.5164 29.5362C78.5164 27.4048 79.8625 25.9386 81.6871 25.9386C82.9584 25.9386 83.9454 26.5432 84.5736 27.692L87.7443 25.8479C86.6076 23.5957 84.3194 22.2957 81.7469 22.2957ZM68.1968 26.3316L69.5428 30.4431H66.8507L68.1968 26.3316ZM70.3355 22.5527H66.1328L61.1525 36.4743H64.8765L65.744 33.829H70.6496L71.517 36.4743H75.3009L70.3355 22.5527ZM60.1654 22.5527H55.2299L52.5977 30.9268L49.9504 22.5527H45V36.4743H48.5745V27.7676L50.6982 35.1894H54.512L56.6358 27.7676V36.4743H60.2103V22.5527H60.1654Z" fill="white"/>
<path d="M108.563 22.3259L102.326 24.8049V28.3722L105.093 27.3292V36.4743H108.563V22.3259Z" fill="#D77F7A"/>
</svg>
